<svg width="178" height="23" viewBox="0 0 178 23" fill="none" xmlns="http://www.w3.org/2000/svg">
<path d="M175.86 6.33832L173.672 16.5522C173.48 17.5128 173.405 18.2421 173.448 18.7402C173.49 19.2382 173.64 19.6509 173.896 19.9782L173.8 20.3945H169.349L166.959 8.48357L165.24 16.5522C165.048 17.5128 164.97 18.2421 165.005 18.7402C165.048 19.2382 165.198 19.6509 165.454 19.9782L165.368 20.3945H161.782L161.868 19.9782C162.266 19.6509 162.593 19.2276 162.85 18.7082C163.113 18.1887 163.34 17.4701 163.533 16.5522L165.721 6.33832C165.913 5.37776 165.987 4.64845 165.945 4.15039C165.902 3.65232 165.753 3.23964 165.496 2.91234L165.582 2.49609H170.481L172.669 13.329L174.152 6.33832C174.344 5.37776 174.419 4.64845 174.376 4.15039C174.341 3.65232 174.195 3.23964 173.939 2.91234L174.024 2.49609H177.61L177.525 2.91234C177.126 3.23964 176.795 3.66299 176.532 4.1824C176.276 4.70182 176.052 5.42046 175.86 6.33832Z" fill="black"/>
<path d="M161.127 11.8455L159.59 19.0603C158.053 20.0493 156.271 20.5438 154.243 20.5438C152.315 20.5438 150.902 20.1632 150.006 19.4018C149.116 18.6334 148.832 17.4985 149.152 15.9972L151.073 6.88257C151.393 5.38126 152.162 4.24994 153.378 3.48861C154.602 2.72016 156.178 2.33594 158.107 2.33594C158.832 2.33594 159.43 2.36796 159.9 2.43199C160.376 2.49603 160.785 2.63122 161.127 2.83756C161.476 3.03679 161.728 3.21111 161.885 3.36053C162.041 3.50284 162.28 3.76254 162.6 4.13965C162.643 4.18946 162.675 4.22503 162.696 4.24638L160.252 8.33408H159.836C159.907 7.9712 159.96 7.61189 159.996 7.25612C160.031 6.90036 160.035 6.50902 160.006 6.08211C159.978 5.6552 159.903 5.2852 159.782 4.97213C159.668 4.65195 159.473 4.38513 159.195 4.17167C158.925 3.95821 158.583 3.85148 158.171 3.85148C157.786 3.85148 157.438 3.93331 157.125 4.09696C156.819 4.26061 156.566 4.48474 156.367 4.76935C156.175 5.04684 156.015 5.33857 155.887 5.64452C155.766 5.95048 155.67 6.28489 155.598 6.64777L153.539 16.2427C153.482 16.513 153.439 16.7443 153.411 16.9364C153.382 17.1285 153.357 17.3562 153.336 17.6195C153.314 17.8827 153.325 18.1069 153.368 18.2919C153.411 18.4697 153.475 18.6441 153.56 18.8148C153.645 18.9856 153.777 19.1137 153.955 19.199C154.133 19.2844 154.353 19.3271 154.617 19.3271C154.944 19.3271 155.204 19.2311 155.396 19.039C155.595 18.8397 155.755 18.4911 155.876 17.993L157.253 11.5893C157.281 11.4399 157.292 11.3118 157.285 11.2051C157.285 11.0984 157.278 11.0094 157.263 10.9383C157.249 10.86 157.203 10.796 157.125 10.7461C157.046 10.6963 156.979 10.6608 156.922 10.6394C156.865 10.611 156.755 10.5932 156.591 10.5861C156.434 10.5718 156.303 10.5647 156.196 10.5647C156.097 10.5576 155.929 10.554 155.694 10.554C155.645 10.554 155.606 10.554 155.577 10.554L155.748 9.71088H162.088L162.002 10.1164C161.796 10.1876 161.625 10.3619 161.49 10.6394C161.362 10.9169 161.241 11.3189 161.127 11.8455Z" fill="black"/>
<path d="M141.389 16.5522L143.576 6.33832C143.769 5.37776 143.843 4.64845 143.801 4.15039C143.758 3.65232 143.608 3.23964 143.352 2.91234L143.438 2.49609H149.607L149.521 2.91234C149.123 3.23964 148.792 3.66299 148.529 4.1824C148.273 4.70182 148.048 5.42046 147.856 6.33832L145.668 16.5522C145.476 17.5128 145.402 18.2421 145.444 18.7402C145.487 19.2382 145.636 19.6509 145.892 19.9782L145.796 20.3945H139.638L139.724 19.9782C140.122 19.6509 140.449 19.2276 140.705 18.7082C140.969 18.1887 141.196 17.4701 141.389 16.5522Z" fill="black"/>
<path d="M138.407 8.69822H137.99C137.962 7.82304 137.873 7.05816 137.724 6.40355C137.581 5.74184 137.4 5.22954 137.179 4.86666C136.966 4.49667 136.738 4.22629 136.496 4.05553C136.254 3.87765 136.002 3.78871 135.738 3.78871C135.411 3.78871 135.112 3.91678 134.842 4.17293C134.571 4.42196 134.39 4.74215 134.298 5.13348C134.205 5.49636 134.187 5.86635 134.244 6.24346C134.308 6.62057 134.429 6.97989 134.607 7.32142C134.785 7.66295 134.998 8.02227 135.247 8.39938C135.504 8.76937 135.777 9.13225 136.069 9.48801C136.361 9.83666 136.653 10.2102 136.944 10.6087C137.236 11 137.506 11.3878 137.756 11.772C138.005 12.1562 138.214 12.5725 138.385 13.0207C138.556 13.4619 138.666 13.9066 138.716 14.3548C138.773 14.796 138.748 15.2727 138.641 15.785C138.463 16.589 138.136 17.3077 137.659 17.9409C137.19 18.5742 136.628 19.0793 135.973 19.4565C135.319 19.8336 134.618 20.1217 133.871 20.321C133.131 20.5131 132.369 20.6091 131.587 20.6091C130.477 20.6091 129.47 20.4277 128.566 20.0648C127.663 19.6948 127.001 19.179 126.581 18.5172L129.377 13.533L129.772 13.6184C129.751 14.5718 129.801 15.4079 129.922 16.1265C130.043 16.8452 130.217 17.4108 130.445 17.8235C130.672 18.2362 130.921 18.5421 131.192 18.7414C131.462 18.9406 131.754 19.0402 132.067 19.0402C132.529 19.0402 132.956 18.841 133.348 18.4425C133.739 18.037 134.002 17.5211 134.137 16.895C134.223 16.4752 134.212 16.0518 134.105 15.6249C134.006 15.198 133.835 14.8031 133.593 14.4402C133.351 14.0773 133.067 13.6967 132.739 13.2982C132.419 12.8926 132.088 12.5013 131.747 12.1242C131.412 11.7471 131.092 11.3309 130.786 10.8755C130.487 10.4201 130.231 9.96473 130.018 9.50935C129.811 9.04686 129.683 8.53101 129.633 7.96179C129.584 7.38546 129.637 6.78778 129.794 6.16875C129.971 5.50703 130.277 4.91647 130.711 4.39706C131.145 3.87765 131.658 3.46496 132.248 3.15901C132.839 2.85305 133.469 2.62181 134.137 2.46527C134.806 2.30874 135.493 2.23047 136.197 2.23047C137.065 2.23047 137.876 2.34787 138.631 2.58267C139.392 2.81036 140 3.13055 140.456 3.54323L138.407 8.69822Z" fill="black"/>
<path d="M114.613 16.5522L116.801 6.33832C116.993 5.37776 117.067 4.64845 117.025 4.15039C116.982 3.65232 116.833 3.23964 116.576 2.91234L116.662 2.49609H126.94L126.609 7.14946H126.193C126.022 6.35967 125.855 5.79756 125.691 5.46315C125.186 4.46701 124.197 3.9227 122.724 3.8302C122.553 3.81597 122.375 3.80885 122.19 3.80885H121.603L120.493 9.04923H121.561C122.194 9.02077 122.66 8.88202 122.959 8.63298C123.265 8.37684 123.528 7.9855 123.749 7.45897H124.165L123.162 12.1764H122.745C122.745 11.6498 122.646 11.2585 122.447 11.0024C122.254 10.7462 121.849 10.6039 121.23 10.5754H120.163L118.369 19.0604H119.095C119.657 19.0604 120.219 18.9287 120.782 18.6655C121.344 18.4022 121.842 18.0749 122.276 17.6836C122.717 17.2851 123.14 16.8262 123.546 16.3068C123.959 15.7874 124.296 15.3071 124.56 14.8659C124.83 14.4248 125.068 13.9872 125.275 13.5532H125.691L123.354 20.3945H112.862L112.948 19.9782C113.346 19.6509 113.673 19.2276 113.93 18.7082C114.193 18.1887 114.421 17.4701 114.613 16.5522Z" fill="black"/>
<path d="M98.695 17.5142L101.246 5.4645C101.402 4.71029 101.513 4.04857 101.577 3.47935C101.641 2.91013 101.669 2.46899 101.662 2.15592C101.655 1.83573 101.605 1.54401 101.513 1.28074C101.42 1.01748 101.342 0.843155 101.278 0.757773C101.214 0.665275 101.111 0.5372 100.968 0.37355L101.032 0H108.984C109.56 0 110.104 0.0604795 110.617 0.181439C111.129 0.295282 111.598 0.469606 112.025 0.704408C112.452 0.939211 112.805 1.23805 113.082 1.60093C113.36 1.95669 113.552 2.37293 113.658 2.84965C113.765 3.32637 113.754 3.86357 113.626 4.46125L110.627 18.5387C110.478 19.2645 110.186 19.9155 109.752 20.4919C109.318 21.0753 108.799 21.5449 108.194 21.9007C107.596 22.2565 106.949 22.5268 106.251 22.7118C105.554 22.9039 104.843 23 104.117 23H95.9414L96.0054 22.6264C97.1866 22.107 98.0831 20.4029 98.695 17.5142ZM106.454 1.31276L102.1 21.6872C102.185 21.6872 102.306 21.6872 102.463 21.6872C102.662 21.6872 102.85 21.6872 103.028 21.6872C103.213 21.6872 103.391 21.6801 103.562 21.6659C103.733 21.6517 103.896 21.6303 104.053 21.6019C104.209 21.5805 104.359 21.5414 104.501 21.4845C104.643 21.4275 104.779 21.3564 104.907 21.271C105.035 21.1927 105.156 21.0896 105.269 20.9615C105.383 20.8405 105.486 20.6982 105.579 20.5346C105.671 20.3709 105.757 20.1788 105.835 19.9582C105.913 19.7305 105.981 19.4815 106.038 19.2111L109.314 3.78886C109.379 3.48291 109.414 3.20897 109.421 2.96705C109.435 2.72514 109.421 2.51879 109.379 2.34803C109.343 2.17726 109.286 2.0314 109.208 1.91044C109.129 1.78237 109.03 1.68275 108.909 1.6116C108.788 1.54045 108.653 1.48353 108.503 1.44084C108.354 1.39103 108.19 1.35901 108.012 1.34478C107.835 1.33055 107.646 1.31988 107.447 1.31276C107.248 1.30565 107.038 1.30565 106.817 1.31276C106.661 1.31276 106.54 1.31276 106.454 1.31276Z" fill="black"/>
<path d="M79.0165 16.5522L81.2044 6.33832C81.3965 5.37776 81.4712 4.64845 81.4285 4.15039C81.3858 3.65232 81.2364 3.23964 80.9803 2.91234L81.0656 2.49609H87.2346L87.1492 2.91234C86.7507 3.23964 86.4199 3.66299 86.1566 4.1824C85.9005 4.70182 85.6763 5.42046 85.4842 6.33832L82.7733 19.0817H83.6271C84.054 19.0817 84.4916 18.975 84.9399 18.7615C85.3882 18.5481 85.7937 18.2812 86.1566 17.9611C86.5266 17.6409 86.9001 17.2567 87.2772 16.8084C87.6544 16.353 87.971 15.9297 88.2271 15.5383C88.4904 15.147 88.7501 14.7307 89.0063 14.2896C89.2624 13.8413 89.4438 13.5105 89.5506 13.297C89.6644 13.0765 89.7676 12.8701 89.8601 12.678H90.2763L87.971 20.3945H77.2661L77.3515 19.9782C77.7499 19.6509 78.0773 19.2276 78.3334 18.7082C78.5967 18.1887 78.8243 17.4701 79.0165 16.5522Z" fill="black"/>
<path d="M66.5034 20.3945H62.896L62.9814 19.9782C63.4368 19.6509 63.8388 19.2311 64.1874 18.7188C64.5361 18.1994 64.8847 17.4772 65.2334 16.5522L69.1716 6.33832C69.5274 5.41334 69.7302 4.68403 69.78 4.15039C69.8298 3.61674 69.7515 3.20406 69.5452 2.91234L69.6306 2.49609H76.1624L76.077 2.91234C75.7354 3.23964 75.4793 3.66299 75.3085 4.1824C75.1378 4.70182 75.0381 5.42046 75.0097 6.33832L74.5721 16.5522C74.5436 17.4772 74.5899 18.1994 74.7108 18.7188C74.8389 19.2382 75.0595 19.658 75.3726 19.9782L75.2872 20.3945H69.1289L69.2143 19.9782C69.5559 19.6509 69.812 19.2276 69.9828 18.7082C70.1535 18.1887 70.2532 17.4701 70.2816 16.5522L70.303 16.2427H67.0691L66.9624 16.5522C66.6066 17.4772 66.4038 18.2065 66.354 18.7402C66.3042 19.2738 66.3825 19.6865 66.5888 19.9782L66.5034 20.3945ZM70.367 14.7165L70.6979 6.83995L67.6561 14.7165H70.367Z" fill="black"/>
<path d="M62.2407 11.8455L60.7039 19.0603C59.167 20.0493 57.3846 20.5438 55.3568 20.5438C53.4285 20.5438 52.0162 20.1632 51.1196 19.4018C50.2302 18.6334 49.9456 17.4985 50.2658 15.9972L52.1869 6.88257C52.5071 5.38126 53.2755 4.24994 54.4923 3.48861C55.7161 2.72016 57.2921 2.33594 59.2203 2.33594C59.9461 2.33594 60.5438 2.36796 61.0134 2.43199C61.4901 2.49603 61.8992 2.63122 62.2407 2.83756C62.5894 3.03679 62.842 3.21111 62.9985 3.36053C63.1551 3.50284 63.3934 3.76254 63.7136 4.13965C63.7563 4.18946 63.7883 4.22503 63.8097 4.24638L61.3656 8.33408H60.9493C61.0205 7.9712 61.0738 7.61189 61.1094 7.25612C61.145 6.90036 61.1486 6.50902 61.1201 6.08211C61.0916 5.6552 61.0169 5.2852 60.896 4.97213C60.7821 4.65195 60.5865 4.38513 60.309 4.17167C60.0386 3.95821 59.697 3.85148 59.2844 3.85148C58.9001 3.85148 58.5515 3.93331 58.2384 4.09696C57.9325 4.26061 57.6799 4.48474 57.4807 4.76935C57.2885 5.04684 57.1284 5.33857 57.0004 5.64452C56.8794 5.95048 56.7834 6.28489 56.7122 6.64777L54.6523 16.2427C54.5954 16.513 54.5527 16.7443 54.5243 16.9364C54.4958 17.1285 54.4709 17.3562 54.4496 17.6195C54.4282 17.8827 54.4389 18.1069 54.4816 18.2919C54.5243 18.4697 54.5883 18.6441 54.6737 18.8148C54.7591 18.9856 54.8907 19.1137 55.0686 19.199C55.2465 19.2844 55.467 19.3271 55.7303 19.3271C56.0576 19.3271 56.3173 19.2311 56.5094 19.039C56.7086 18.8397 56.8687 18.4911 56.9897 17.993L58.3665 11.5893C58.395 11.4399 58.4056 11.3118 58.3985 11.2051C58.3985 11.0984 58.3914 11.0094 58.3772 10.9383C58.3629 10.86 58.3167 10.796 58.2384 10.7461C58.1602 10.6963 58.0926 10.6608 58.0356 10.6394C57.9787 10.611 57.8684 10.5932 57.7048 10.5861C57.5482 10.5718 57.4166 10.5647 57.3099 10.5647C57.2103 10.5576 57.0431 10.554 56.8083 10.554C56.7585 10.554 56.7193 10.554 56.6909 10.554L56.8616 9.71088H63.2013L63.1159 10.1164C62.9096 10.1876 62.7388 10.3619 62.6036 10.6394C62.4755 10.9169 62.3546 11.3189 62.2407 11.8455Z" fill="black"/>
<path d="M37.3153 16.5522L39.5032 6.33832C39.6953 5.37776 39.77 4.64845 39.7274 4.15039C39.6847 3.65232 39.5352 3.23964 39.2791 2.91234L39.3645 2.49609H49.6424L49.3116 7.14946H48.8953C48.7246 6.35967 48.5574 5.79756 48.3937 5.46315C47.8885 4.46701 46.8995 3.9227 45.4267 3.8302C45.2559 3.81597 45.078 3.80885 44.893 3.80885H44.306L43.196 9.04923H44.2633C44.8966 9.02077 45.3626 8.88202 45.6615 8.63298C45.9674 8.37684 46.2307 7.9855 46.4513 7.45897H46.8675L45.8642 12.1764H45.448C45.448 11.6498 45.3484 11.2585 45.1492 11.0024C44.9571 10.7462 44.5515 10.6039 43.9325 10.5754H42.8652L41.0721 19.0604H41.7979C42.36 19.0604 42.9221 18.9287 43.4842 18.6655C44.0463 18.4022 44.5444 18.0749 44.9784 17.6836C45.4195 17.2851 45.8429 16.8262 46.2485 16.3068C46.6612 15.7874 46.9991 15.3071 47.2624 14.8659C47.5328 14.4248 47.7711 13.9872 47.9775 13.5532H48.3937L46.0564 20.3945H35.5649L35.6503 19.9782C36.0488 19.6509 36.3761 19.2276 36.6322 18.7082C36.8955 18.1887 37.1232 17.4701 37.3153 16.5522Z" fill="black"/>
<path fill-rule="evenodd" clip-rule="evenodd" d="M15.0266 23H7.54873H6.90004H5.43559C4.60158 23 3.83299 22.9039 3.12981 22.7118C2.41846 22.5268 1.80522 22.2565 1.2901 21.9007C0.766802 21.5449 0.39886 21.0753 0.186271 20.4919C-0.0344949 19.9155 -0.059024 19.2645 0.112683 18.5387L3.54681 4.46125C3.71852 3.7355 4.05376 3.08445 4.55253 2.50812C5.05129 1.92467 5.64818 1.45506 6.34318 1.0993C7.03001 0.743541 7.77407 0.473161 8.57537 0.288165C9.37666 0.0960533 10.1943 0 11.0283 0L12.7503 0L13.1415 0L20.8769 0L21.9503 0L22.3414 0L31.5413 0C32.3753 0 33.1439 0.0960557 33.8471 0.288167C34.5585 0.473163 35.1717 0.743542 35.6868 1.0993C36.2101 1.45507 36.5781 1.92467 36.7906 2.50812C37.0114 3.08446 37.0359 3.7355 36.8642 4.46125L33.4301 18.5387C33.2584 19.2645 32.9232 19.9155 32.4244 20.4919C31.9256 21.0753 31.3287 21.5449 30.6337 21.9007C29.9469 22.2565 29.2028 22.5268 28.4016 22.7118C27.6003 22.9039 26.7826 23 25.9486 23H16.7486H16.1H15.0266ZM5.23069 21.6872L10.2347 1.31276H10.6517C10.897 1.30565 11.126 1.30565 11.3385 1.31276C11.5511 1.31988 11.7474 1.33055 11.9272 1.34478C12.1153 1.35901 12.2829 1.38747 12.4301 1.43016C12.5773 1.47285 12.704 1.53333 12.8103 1.6116C12.9166 1.68275 13.0025 1.78237 13.0679 1.91044C13.1415 2.0314 13.1905 2.17726 13.215 2.34803C13.2396 2.51879 13.2396 2.72514 13.215 2.96705C13.1905 3.20897 13.1415 3.48291 13.0679 3.78886L9.30259 19.2111C9.23718 19.4886 9.16359 19.7377 9.08182 19.9582C9.00006 20.1717 8.9142 20.3602 8.82426 20.5239C8.73432 20.6947 8.63211 20.8405 8.51764 20.9615C8.41135 21.0896 8.29688 21.1927 8.17423 21.271C8.05158 21.3564 7.92076 21.424 7.78176 21.4738C7.64276 21.5307 7.49149 21.5734 7.32796 21.6019C7.17261 21.6303 7.00499 21.6517 6.82511 21.6659C6.6534 21.6801 6.46943 21.6872 6.27319 21.6872H5.64769H5.23069ZM28.6346 1.31276L23.6306 21.6872H24.0476H24.6731C24.8693 21.6872 25.0533 21.6801 25.225 21.6659C25.4049 21.6517 25.5725 21.6303 25.7278 21.6019C25.8914 21.5734 26.0426 21.5307 26.1816 21.4738C26.3206 21.424 26.4515 21.3564 26.5741 21.271C26.6967 21.1927 26.8112 21.0896 26.9175 20.9615C27.032 20.8405 27.1342 20.6947 27.2241 20.5239C27.3141 20.3602 27.3999 20.1717 27.4817 19.9582C27.5635 19.7377 27.637 19.4886 27.7025 19.2111L31.4677 3.78886C31.5413 3.48291 31.5904 3.20897 31.6149 2.96705C31.6394 2.72514 31.6394 2.51879 31.6149 2.34803C31.5904 2.17726 31.5413 2.0314 31.4677 1.91044C31.4023 1.78237 31.3165 1.68275 31.2102 1.6116C31.1039 1.53333 30.9771 1.47285 30.83 1.43016C30.6828 1.38747 30.5152 1.35901 30.3271 1.34478C30.1472 1.33055 29.951 1.31988 29.7384 1.31276C29.5258 1.30565 29.2969 1.30565 29.0516 1.31276H28.6346ZM14.4306 21.6872L19.4346 1.31276H19.8516C20.0969 1.30565 20.3259 1.30565 20.5385 1.31276C20.751 1.31988 20.9473 1.33055 21.1272 1.34478C21.3152 1.35901 21.4828 1.38747 21.63 1.43016C21.7772 1.47285 21.9039 1.53333 22.0102 1.6116C22.1165 1.68275 22.2024 1.78237 22.2678 1.91044C22.3414 2.0314 22.3904 2.17726 22.415 2.34803C22.4395 2.51879 22.4395 2.72514 22.415 2.96705C22.3904 3.20897 22.3414 3.48291 22.2678 3.78886L18.5025 19.2111C18.4371 19.4886 18.3635 19.7377 18.2817 19.9582C18.2 20.1717 18.1141 20.3602 18.0242 20.5239C17.9342 20.6947 17.832 20.8405 17.7176 20.9615C17.6113 21.0896 17.4968 21.1927 17.3741 21.271C17.2515 21.3564 17.1207 21.424 16.9817 21.4738C16.8427 21.5307 16.6914 21.5734 16.5279 21.6019C16.3725 21.6303 16.2049 21.6517 16.025 21.6659C15.8533 21.6801 15.6693 21.6872 15.4731 21.6872H14.8476H14.4306Z" fill="black"/>
</svg>
